<svg xmlns="http://www.w3.org/2000/svg" width="31" height="30" viewBox="0 0 31 30" fill="none"><path d="M5.5 14.3747L4.89366 14.5264C3.78074 14.8046 3 15.8045 3 16.9518V19.2977C3 20.445 3.78074 21.4449 4.89366 21.7231L7.0681 22.2668C7.54146 22.3851 8 22.0271 8 21.5391V14.7104C8 14.2224 7.54146 13.8644 7.0681 13.9828L5.5 14.3747ZM5.5 14.3747V13.75C5.5 8.22715 9.97715 3.75 15.5 3.75C21.0229 3.75 25.5 8.22715 25.5 13.75V14.3747M25.5 14.3747L26.1064 14.5264C27.2192 14.8046 28 15.8045 28 16.9518V19.2977C28 20.445 27.2192 21.4449 26.1064 21.7231L25.5 21.8747M25.5 14.3747L23.9319 13.9828C23.4585 13.8644 23 14.2224 23 14.7104V21.5391C23 22.0271 23.4585 22.3851 23.9319 22.2668L25.5 21.8747M25.5 21.8747V22.5V23.125C25.5 24.5057 24.3807 25.625 23 25.625H19.25M19.25 25.625C19.25 24.5895 18.4105 23.75 17.375 23.75H13.625C12.5895 23.75 11.75 24.5895 11.75 25.625C11.75 26.6605 12.5895 27.5 13.625 27.5H17.375C18.4105 27.5 19.25 26.6605 19.25 25.625Z" stroke="white" stroke-width="1.875"></path></svg>