<svg xmlns="http://www.w3.org/2000/svg" width="55" height="54" viewBox="0 0 55 54" fill="none"><path d="M19.625 9H14C11.5147 9 9.5 11.0147 9.5 13.5V45C9.5 47.4853 11.5147 49.5 14 49.5H27.5" stroke="white" stroke-width="3.375" stroke-linecap="round"></path><path d="M35.375 9H41C43.4853 9 45.5 11.0147 45.5 13.5V33.75" stroke="white" stroke-width="3.375" stroke-linecap="round"></path><path d="M18.5 14.4V10.125C18.5 9.50368 19.0037 9 19.625 9C20.2463 9 20.7595 8.49609 20.8659 7.88395C21.1993 5.96635 22.4915 2.25 27.5 2.25C32.5085 2.25 33.8007 5.96635 34.1341 7.88395C34.2405 8.49609 34.7538 9 35.375 9C35.9962 9 36.5 9.50368 36.5 10.125V14.4C36.5 15.1456 35.8956 15.75 35.15 15.75H19.85C19.1044 15.75 18.5 15.1456 18.5 14.4Z" stroke="white" stroke-width="3.375" stroke-linecap="round"></path><path d="M35.375 46.125L39.875 50.625L51.125 39.375" stroke="white" stroke-width="3.375" stroke-linecap="round" stroke-linejoin="round"></path></svg>