<svg xmlns="http://www.w3.org/2000/svg" width="54" height="55" viewBox="0 0 54 55" fill="none"><path d="M15.75 41V38.75C15.75 32.5369 20.7868 27.5 27 27.5C33.2131 27.5 38.25 32.5369 38.25 38.75V41" stroke="white" stroke-width="3.375" stroke-linecap="round" stroke-linejoin="round"></path><path d="M2.25 41V38.75C2.25 35.022 5.27209 32 9 32" stroke="white" stroke-width="3.375" stroke-linecap="round" stroke-linejoin="round"></path><path d="M51.75 41V38.75C51.75 35.022 48.728 32 45 32" stroke="white" stroke-width="3.375" stroke-linecap="round" stroke-linejoin="round"></path><path d="M27 27.5C30.728 27.5 33.75 24.478 33.75 20.75C33.75 17.0221 30.728 14 27 14C23.272 14 20.25 17.0221 20.25 20.75C20.25 24.478 23.272 27.5 27 27.5Z" stroke="white" stroke-width="3.375" stroke-linecap="round" stroke-linejoin="round"></path><path d="M9 32C11.4853 32 13.5 29.9853 13.5 27.5C13.5 25.0147 11.4853 23 9 23C6.51472 23 4.5 25.0147 4.5 27.5C4.5 29.9853 6.51472 32 9 32Z" stroke="white" stroke-width="3.375" stroke-linecap="round" stroke-linejoin="round"></path><path d="M45 32C47.4853 32 49.5 29.9853 49.5 27.5C49.5 25.0147 47.4853 23 45 23C42.5147 23 40.5 25.0147 40.5 27.5C40.5 29.9853 42.5147 32 45 32Z" stroke="white" stroke-width="3.375" stroke-linecap="round" stroke-linejoin="round"></path></svg>