<svg xmlns="http://www.w3.org/2000/svg" width="54" height="55" viewBox="0 0 54 55" fill="none"><path d="M23.673 6.40314C25.4582 4.44309 28.542 4.44309 30.3272 6.40314L32.6226 8.92365C33.5247 9.91426 34.8213 10.4513 36.1598 10.3888L39.5652 10.2296C42.2132 10.1059 44.3942 12.2866 44.2704 14.9348L44.1111 18.3402C44.0486 19.6786 44.5856 20.9752 45.5763 21.8774L48.0968 24.1728C50.057 25.9579 50.057 29.0418 48.0968 30.8269L45.5763 33.1224C44.5856 34.0244 44.0486 35.3211 44.1111 36.6596L44.2704 40.065C44.3942 42.713 42.2132 44.8939 39.5652 44.7702L36.1598 44.6109C34.8213 44.5483 33.5247 45.0854 32.6226 46.0761L30.3272 48.5965C28.542 50.5567 25.4582 50.5567 23.673 48.5965L21.3776 46.0761C20.4755 45.0854 19.1788 44.5483 17.8405 44.6109L14.435 44.7702C11.7869 44.8939 9.60612 42.713 9.72989 40.065L9.88903 36.6596C9.95158 35.3211 9.41451 34.0244 8.4239 33.1224L5.90338 30.8269C3.94334 29.0418 3.94334 25.9579 5.90338 24.1728L8.4239 21.8774C9.41451 20.9752 9.95158 19.6786 9.88903 18.3402L9.72989 14.9348C9.60612 12.2866 11.7869 10.1059 14.4351 10.2296L17.8405 10.3888C19.1788 10.4513 20.4755 9.91426 21.3776 8.92365L23.673 6.40314Z" stroke="white" stroke-width="3.375"></path><path d="M20.25 27.5L24.75 32L33.75 23" stroke="white" stroke-width="3.375" stroke-linecap="round" stroke-linejoin="round"></path></svg>